<svg id="svg5" height="48" viewBox="0 0 48 48" width="48" xmlns="http://www.w3.org/2000/svg" xmlns:svg="http://www.w3.org/2000/svg"><g id="layer1" stroke-dashoffset=".8" stroke-linecap="round" stroke-linejoin="round" stroke-miterlimit="3.3" transform="translate(-530 -449)"><path id="path92961" d="m573.00126 473.00399a19 19 0 0 1 -19 19 19 19 0 0 1 -19-19 19 19 0 0 1 19-19 19 19 0 0 1 19 19z" fill="#717d99" stroke-width="2"/><path id="path92963" d="m554.00126 453.00399c-11.03384 0-20 8.96616-20 20s8.96616 20 20 20 20-8.96616 20-20-8.96616-20-20-20zm0 2c9.95296 0 18 8.04704 18 18s-8.04704 18-18 18-18-8.04704-18-18 8.04704-18 18-18z" fill="#454d60"/></g></svg>