<svg id="Layer_1" enable-background="new 0 0 512 512" height="512" viewBox="0 0 512 512" width="512" xmlns="http://www.w3.org/2000/svg"><g><path d="m437.02 74.979c-5.857-5.857-15.355-5.857-21.213 0s-5.858 15.355 0 21.213c88.117 88.117 88.117 231.496 0 319.615-5.858 5.857-5.858 15.355 0 21.213 2.929 2.929 6.768 4.394 10.606 4.394s7.678-1.465 10.606-4.394c48.352-48.352 74.981-112.64 74.981-181.021s-26.629-132.668-74.98-181.02z"/><path d="m391.574 120.423c-5.857-5.857-15.355-5.857-21.213 0-5.858 5.858-5.858 15.355 0 21.213 30.549 30.548 47.373 71.163 47.373 114.364 0 43.2-16.824 83.815-47.373 114.362-5.857 5.857-5.858 15.354 0 21.213 2.929 2.93 6.768 4.394 10.606 4.394s7.678-1.465 10.606-4.394c36.215-36.213 56.16-84.361 56.16-135.575.001-51.215-19.944-99.363-56.159-135.577z"/><path d="m313.969 19.938c-11.271-6.24-25.583-4.905-39.271 3.663l-167.607 104.932h-51.925c-30.419 0-55.166 24.747-55.166 55.166v144.602c0 30.419 24.747 55.166 55.166 55.166h51.925l167.606 104.933c7.997 5.006 16.206 7.543 23.898 7.543 5.474 0 10.687-1.285 15.373-3.88 11.27-6.241 17.733-19.081 17.733-35.229v-401.668c.001-16.147-6.463-28.987-17.732-35.228zm-217.57 333.529h-41.233c-13.877 0-25.166-11.289-25.166-25.166v-144.602c0-13.877 11.289-25.166 25.166-25.166h41.233zm205.303 103.367c0 6.354-1.817 8.734-2.267 8.983-.451.247-3.43.527-8.818-2.846l-164.218-102.811v-208.32l164.218-102.812c5.389-3.374 8.367-3.093 8.818-2.846.449.249 2.267 2.63 2.267 8.983z"/></g></svg>