<svg clip-rule="evenodd" fill-rule="evenodd" height="512" image-rendering="optimizeQuality" shape-rendering="geometricPrecision" text-rendering="geometricPrecision" viewBox="0 0 1837370 1837370" width="512" xmlns="http://www.w3.org/2000/svg"><g id="图层_x0020_1" fill="rgb(0,0,0)"><path d="m918684 0c253627 0 483311 102855 649570 269114 166258 166258 269114 395943 269114 649570s-102855 483311-269114 649570c-166258 166258-395943 269114-649570 269114s-483311-102855-649570-269114c-166258-166258-269114-395943-269114-649570s102855-483311 269114-649570c166258-166258 395943-269114 649570-269114zm603172 315511c-154376-154376-367644-249876-603172-249876-235529 0-448796 95500-603172 249876s-249876 367644-249876 603172c0 235529 95500 448796 249876 603172s367644 249876 603172 249876c235529 0 448796-95500 603172-249876s249876-367644 249876-603172c0-235529-95500-448796-249876-603172z" fill-rule="nonzero"/><g id="_176373640"><path id="_177697520" d="m1081740 1175270-47761-47761-184233-184240-47769-47761c-12774-12774-33624-12774-46397 0-12781 12781-12781 33631 0 46405l47769 47761 184233 184233 47761 47769c12774 12774 33624 12774 46397 0 12781-12781 12781-33631 0-46405z"/><path id="_176374912" d="m802024 941866 47761-47769 184240-184233 47761-47769c12774-12774 12774-33624 0-46397-12781-12781-33631-12781-46405 8l-47761 47761-184233 184233-47769 47761c-12774 12781-12774 33624 0 46405 12781 12774 33624 12774 46405 0z"/></g></g></svg>