<svg id="Layer_1" enable-background="new 0 0 450 450" height="512" viewBox="0 0 450 450" width="512" xmlns="http://www.w3.org/2000/svg" xmlns:xlink="http://www.w3.org/1999/xlink"><linearGradient id="SVGID_1_" gradientTransform="matrix(1 0 0 -1 0 452)" gradientUnits="userSpaceOnUse" x1="103.544" x2="346.456" y1="348.456" y2="105.544"><stop offset="0" stop-color="#00dbde"/><stop offset="1" stop-color="#fc00ff"/></linearGradient><path d="m225 323.4c-54.2 0-98.4-44.1-98.4-98.4s44.1-98.4 98.4-98.4 98.4 44.1 98.4 98.4-44.2 98.4-98.4 98.4zm0-184.8c-47.6 0-86.4 38.7-86.4 86.4s38.7 86.4 86.4 86.4 86.4-38.7 86.4-86.4-38.8-86.4-86.4-86.4zm-166.8 160c-3.3 0-6-2.7-6-6v-135.2c0-3.3 2.7-6 6-6s6 2.7 6 6v135.3c0 3.3-2.7 5.9-6 5.9zm25.5-31.5c-3.3 0-6-2.7-6-6v-72.1c0-3.3 2.7-6 6-6s6 2.7 6 6v72.1c0 3.3-2.7 6-6 6zm22.7-18.7c-3.3 0-6-2.7-6-6v-34.8c0-3.3 2.7-6 6-6s6 2.7 6 6v34.8c0 3.3-2.7 6-6 6zm-73.6 18.7c-3.3 0-6-2.7-6-6v-72.1c0-3.3 2.7-6 6-6s6 2.7 6 6v72.1c0 3.3-2.7 6-6 6zm-22.8-18.7c-3.3 0-6-2.7-6-6v-34.8c0-3.3 2.7-6 6-6s6 2.7 6 6v34.8c0 3.3-2.7 6-6 6zm381.8 50.2c-3.3 0-6-2.7-6-6v-135.2c0-3.3 2.7-6 6-6s6 2.7 6 6v135.3c0 3.3-2.7 5.9-6 5.9zm25.4-31.5c-3.3 0-6-2.7-6-6v-72.1c0-3.3 2.7-6 6-6s6 2.7 6 6v72.1c0 3.3-2.7 6-6 6zm22.8-18.7c-3.3 0-6-2.7-6-6v-34.8c0-3.3 2.7-6 6-6s6 2.7 6 6v34.8c0 3.3-2.7 6-6 6zm-73.6 18.7c-3.3 0-6-2.7-6-6v-72.1c0-3.3 2.7-6 6-6s6 2.7 6 6v72.1c0 3.3-2.7 6-6 6zm-22.8-18.7c-3.3 0-6-2.7-6-6v-34.8c0-3.3 2.7-6 6-6s6 2.7 6 6v34.8c0 3.3-2.7 6-6 6zm-139.5 33.2c-.9 0-1.9-.2-2.7-.6-2-1-3.3-3.1-3.3-5.4v-101.2c0-2.3 1.3-4.3 3.3-5.4 2-1 4.4-.8 6.3.5l69.1 50.6c1.5 1.1 2.5 2.9 2.5 4.8s-.9 3.7-2.5 4.8l-69.1 50.6c-1.1.9-2.3 1.3-3.6 1.3zm6-95.3v77.5l52.9-38.8z" fill="url(#SVGID_1_)"/></svg>